<mxfile host="app.diagrams.net" modified="2023-05-18T18:19:42.042Z" agent="Mozilla/5.0 (X11; Linux x86_64) AppleWebKit/537.36 (KHTML, like Gecko) Chrome/111.0.0.0 Safari/537.36" version="21.3.2" etag="b-13v8YaBdvHA_8Zvbfb" type="github">
  <diagram name="PÃ¡gina-1" id="eN0peqwjjkp5QC_iOrmr">
    <mxGraphModel>
      <root>
        <mxCell id="0" />
        <mxCell id="1" parent="0" />
      </root>
    </mxGraphModel>
  </diagram>
</mxfile>
